<svg width="2240" height="1302" viewBox="0 0 2240 1302" fill="none" xmlns="http://www.w3.org/2000/svg">
<path d="M778.188 1207.26C706.568 1165.51 684.005 1079 680.215 999.917C679.589 986.719 676.982 972.966 682.336 960.88C687.655 948.829 701.631 939.729 713.904 944.314C724.056 948.134 729.271 959.144 735.529 968.104C743.839 980.016 755.555 989.498 768.871 995.089C777.632 998.771 788.236 1000.58 796.128 995.332C806.975 988.143 807.045 972.341 805.898 959.248C803.742 934.867 801.586 910.452 799.431 886.071C798.284 872.978 797.136 859.607 800.196 846.861C803.255 834.115 811.321 821.82 823.49 817.306C835.693 812.791 851.686 818.729 855.371 831.336C856.901 836.581 856.275 842.207 857.074 847.625C857.874 853.043 860.899 858.843 866.218 859.919C871.572 861.031 876.509 856.898 880.125 852.73C892.571 838.387 900.359 820.605 907.556 802.962C914.753 785.319 921.671 767.294 932.762 751.874C943.853 736.454 959.915 723.638 978.585 721.033C997.29 718.429 1018.22 728.362 1024.48 746.386C1030.74 764.446 1021.49 784.069 1010.99 799.975C995.412 823.557 976.395 844.881 954.804 862.976C950.91 866.24 946.704 869.783 945.522 874.749C943.401 883.71 952.371 891.698 961.236 893.886C971.284 896.351 981.783 894.441 992.109 894.823C1002.43 895.205 1013.87 898.783 1018.53 908.125C1025 921.079 1014.95 936.013 1004.66 946.12C984.078 966.333 960.054 982.934 933.979 994.985C924.627 999.292 914.718 1003.22 907.521 1010.61C900.29 1018.01 896.57 1030.17 902.028 1039.02C907.487 1047.88 919.794 1049.82 929.737 1047.15C939.681 1044.44 948.268 1038.22 957.62 1033.81C975.073 1025.55 998.437 1024.89 1011.27 1039.51C1019.68 1049.13 1021.52 1063.3 1018.67 1075.8C1015.82 1088.31 1008.9 1099.45 1001.46 1109.8C975.352 1145.99 940.619 1176.28 900.012 1194.16C859.369 1211.94 820.986 1219.03 778.188 1207.26Z" fill="#EBEBEB"/>
<path d="M781.943 1265.81C782.256 1234.31 786.081 1196.87 794.529 1156.13C802.908 1115.36 815.772 1071.46 830.826 1025.96C834.615 1014.61 838.405 1003.39 842.09 992.346C845.81 981.302 849.496 970.362 853.772 959.908C862.22 938.931 871.955 919.378 881.759 901.109C891.564 882.841 901.542 865.858 910.998 850.056C920.49 834.254 929.599 819.702 938.464 806.782C956.126 780.873 972.849 761.702 984.843 749.026C990.823 742.67 995.656 737.877 998.959 734.682C1000.56 733.154 1001.81 731.973 1002.75 731.07C1003.62 730.272 1004.07 729.855 1004.1 729.89C1004.14 729.924 1003.76 730.376 1002.92 731.244C1002.02 732.182 1000.84 733.432 999.306 735.03C996.108 738.329 991.414 743.226 985.539 749.686C973.753 762.571 957.343 781.811 939.89 807.755C931.128 820.674 922.124 835.261 912.737 851.063C903.384 866.9 893.476 883.883 883.741 902.151C874.006 920.385 864.341 939.868 855.962 960.776C851.721 971.195 848.07 982.031 844.35 993.11C840.665 1004.15 836.91 1015.37 833.086 1026.73C818.066 1072.16 805.133 1115.95 796.685 1156.58C788.167 1197.18 784.168 1234.45 783.647 1265.85" fill="#E0E0E0"/>
<path d="M854.467 959.734C854.294 959.769 853.702 957.824 852.729 954.247C851.756 950.67 850.504 945.495 849.044 939.035C846.123 926.15 842.681 908.194 838.996 888.433C835.276 868.637 831.626 850.785 828.497 838.005C826.967 831.58 825.68 826.405 824.707 822.862C823.768 819.285 823.351 817.305 823.525 817.236C823.699 817.201 824.429 819.077 825.611 822.584C826.828 826.058 828.392 831.198 830.131 837.588C833.677 850.334 837.64 868.185 841.326 888.016C844.941 907.569 848.175 925.212 850.678 938.722C851.825 944.8 852.833 949.94 853.633 954.073C854.328 957.685 854.606 959.699 854.467 959.734Z" fill="#E0E0E0"/>
<path d="M1020.44 914.481C1020.48 914.654 1018.08 915.106 1013.8 915.835C1009.49 916.565 1003.3 917.606 995.656 919.135C980.358 922.052 959.359 926.845 936.413 933.131C913.467 939.452 892.989 946.085 878.283 951.295C870.912 953.865 865.002 956.087 860.899 957.581C856.797 959.109 854.537 959.873 854.467 959.734C854.398 959.56 856.588 958.518 860.552 956.712C864.55 954.941 870.356 952.441 877.692 949.662C892.259 944.036 912.771 937.125 935.752 930.769C958.768 924.483 979.906 919.933 995.308 917.433C1003.03 916.113 1009.28 915.349 1013.63 914.897C1018.01 914.481 1020.41 914.342 1020.44 914.481Z" fill="#E0E0E0"/>
<path d="M796.337 1152.87C796.267 1152.9 795.815 1152.24 795.015 1150.92C794.111 1149.33 792.999 1147.42 791.643 1145.05C788.723 1139.95 784.69 1132.48 779.857 1123.14C770.157 1104.52 757.537 1078.37 744.012 1049.34C730.488 1020.27 718.146 994.047 708.828 975.258C704.274 966.124 700.519 958.623 697.737 953.031C696.555 950.6 695.547 948.62 694.747 946.953C694.087 945.564 693.774 944.8 693.843 944.765C693.913 944.731 694.365 945.39 695.165 946.745C696.069 948.343 697.181 950.253 698.537 952.614C701.457 957.72 705.49 965.187 710.323 974.529C720.023 993.144 732.643 1019.3 746.168 1048.37C759.692 1077.4 772.034 1103.62 781.352 1122.44C785.906 1131.58 789.661 1139.08 792.443 1144.67C793.625 1147.1 794.633 1149.12 795.433 1150.75C796.128 1152.07 796.441 1152.8 796.337 1152.87Z" fill="#E0E0E0"/>
<path d="M1014.43 1062.43C1014.46 1062.5 1013.7 1062.88 1012.27 1063.54C1010.57 1064.27 1008.49 1065.17 1005.95 1066.25C1000.11 1068.68 992.214 1071.98 982.584 1075.98C962.871 1084.21 935.787 1095.84 905.853 1108.76C875.919 1121.68 848.696 1133.11 828.809 1140.92C818.866 1144.85 810.8 1147.9 805.168 1149.92C802.56 1150.82 800.405 1151.58 798.666 1152.21C797.171 1152.69 796.372 1152.94 796.337 1152.83C796.302 1152.76 797.067 1152.38 798.493 1151.72C800.196 1150.99 802.282 1150.09 804.82 1149.01C810.661 1146.58 818.553 1143.28 828.184 1139.29C847.896 1131.09 875.015 1119.42 904.949 1106.47C934.883 1093.55 962.106 1082.12 981.993 1074.31C991.936 1070.38 1000 1067.33 1005.63 1065.31C1008.24 1064.41 1010.36 1063.65 1012.14 1063.02C1013.6 1062.57 1014.4 1062.36 1014.43 1062.43Z" fill="#E0E0E0"/>
<path d="M2225.47 1263.31C2225.47 1263.8 1727.22 1264.21 1112.79 1264.21C498.141 1264.21 0 1263.83 0 1263.31C0 1262.82 498.141 1262.41 1112.79 1262.41C1727.26 1262.41 2225.47 1262.82 2225.47 1263.31Z" fill="#263238"/>
<path d="M395.683 113.95C388.382 102.732 379.412 92.417 369.086 83.3177C364.567 79.3584 358.969 75.3645 352.398 76.0591C347.357 76.6148 342.976 79.9489 340.404 83.9081C337.831 87.8673 336.823 92.3823 336.093 96.793C335.606 99.8145 335.189 102.906 333.694 105.719C332.199 108.532 329.313 111.032 325.871 111.414C323.472 111.692 321.178 110.893 318.779 110.789C311.199 110.442 304.698 117.18 303.585 123.883C302.473 130.551 303.273 134.058 303.69 143.227L395.683 113.95Z" fill="#E8505B"/>
<g opacity="0.3">
<g opacity="0.3">
<path opacity="0.3" d="M395.683 113.95C388.382 102.732 379.412 92.417 369.086 83.3177C364.567 79.3584 358.969 75.3645 352.398 76.0591C347.357 76.6148 342.976 79.9489 340.404 83.9081C337.831 87.8673 336.823 92.3823 336.093 96.793C335.606 99.8145 335.189 102.906 333.694 105.719C332.199 108.532 329.313 111.032 325.871 111.414C323.472 111.692 321.178 110.893 318.779 110.789C311.199 110.442 304.698 117.18 303.585 123.883C302.473 130.551 303.273 134.058 303.69 143.227L395.683 113.95Z" fill="black"/>
</g>
</g>
<path d="M302.994 132.357C302.994 132.357 343.776 105.232 388.034 103.288L391.615 108.011L303.794 138.712L302.994 132.357Z" fill="#263238"/>
<path d="M304.107 133.503C300.422 135.378 295.033 137.497 282.656 146.11C276.016 150.729 272.852 155.556 271.635 157.953C270.418 160.349 270.662 164.621 272.643 166.427C277.893 171.185 291.939 173.199 315.476 169.935C346.836 165.593 343.603 157.223 374.337 149.756C385.288 147.082 398.187 146.283 408.93 142.949C419.673 139.615 430.068 128.779 437.891 120.687C439.559 118.951 440.463 116.693 441.924 114.748C445.887 109.504 442.097 106.066 440.568 104.19C438.656 101.829 435.248 101.447 432.224 101.308C399.021 99.9187 339.674 115.408 303.76 133.642" fill="#E8505B"/>
<g opacity="0.2">
<g opacity="0.2">
<path opacity="0.2" d="M365.888 122.111C363.906 122.111 331.538 133.676 317.18 143.123C305.011 151.146 293.99 157.745 288.74 171.324C288.74 171.324 296.528 172.47 313.599 170.004C338.248 166.462 346.592 165.211 370.338 157.744C373.398 156.772 376.666 155.626 378.474 152.952C379.934 150.798 380.177 148.055 380.003 145.485C379.378 135.969 373.745 126.904 365.471 122.181" fill="black"/>
</g>
</g>
<path d="M323.333 296.457L386.713 291.386C387.096 283.989 386.574 255.371 386.574 255.371C386.574 255.371 412.962 251.273 413.275 224.913C413.588 198.552 409.034 138.087 409.034 138.087C378.508 124.994 343.255 129.405 316.936 149.652L313.042 152.674L323.333 296.457Z" fill="#B78876"/>
<path d="M386.643 255.024C386.643 255.024 369.99 256.378 352.259 245.265C352.259 245.265 360.394 264.227 386.713 261.866L386.643 255.024Z" fill="#AA6550"/>
<path d="M316.31 179.972C315.858 179.763 298.197 174.623 298.753 192.614C299.344 210.639 317.319 206.332 317.319 205.811C317.353 205.325 316.31 179.972 316.31 179.972Z" fill="#B78876"/>
<path d="M311.617 199.178C311.548 199.108 311.304 199.421 310.783 199.664C310.261 199.907 309.392 200.115 308.453 199.803C306.541 199.178 304.838 196.191 304.629 192.961C304.525 191.329 304.838 189.766 305.359 188.446C305.881 187.126 306.68 186.154 307.654 185.945C308.592 185.702 309.288 186.258 309.531 186.744C309.774 187.231 309.67 187.613 309.774 187.647C309.809 187.682 310.157 187.335 309.983 186.605C309.914 186.258 309.67 185.841 309.253 185.494C308.801 185.147 308.175 185.008 307.515 185.077C306.124 185.216 304.907 186.536 304.316 187.96C303.656 189.419 303.273 191.19 303.377 193.03C303.621 196.642 305.568 199.976 308.21 200.671C309.496 200.949 310.539 200.532 311.061 200.115C311.582 199.629 311.687 199.212 311.617 199.178Z" fill="#AA6550"/>
<path d="M403.264 179.416C403.333 181.396 401.699 183.097 399.648 183.202C397.562 183.306 395.824 181.812 395.754 179.798C395.685 177.819 397.319 176.117 399.37 176.013C401.456 175.908 403.194 177.436 403.264 179.416Z" fill="#263238"/>
<path d="M404.063 175.179C403.611 175.665 400.725 173.547 396.692 173.581C392.659 173.547 389.67 175.63 389.218 175.109C389.009 174.901 389.461 173.998 390.782 173.06C392.068 172.123 394.224 171.22 396.762 171.22C399.3 171.22 401.421 172.157 402.638 173.095C403.889 174.068 404.306 174.971 404.063 175.179Z" fill="#263238"/>
<path d="M363.56 180.354C363.629 182.333 361.995 184.035 359.944 184.139C357.858 184.244 356.12 182.75 356.05 180.736C355.98 178.756 357.614 177.054 359.666 176.95C361.752 176.846 363.49 178.374 363.56 180.354Z" fill="#263238"/>
<path d="M364.22 175.943C363.768 176.429 360.883 174.311 356.85 174.345C352.817 174.311 349.827 176.394 349.375 175.874C349.166 175.665 349.618 174.762 350.939 173.824C352.226 172.887 354.381 171.984 356.919 171.984C359.457 171.984 361.578 172.921 362.795 173.859C364.046 174.832 364.464 175.7 364.22 175.943Z" fill="#263238"/>
<path d="M378.961 205.95C378.927 205.707 381.465 205.29 385.532 204.769C386.575 204.665 387.549 204.457 387.723 203.762C387.966 202.998 387.549 201.887 387.027 200.706C386.054 198.205 385.046 195.566 383.968 192.822C379.726 181.604 376.632 172.401 377.084 172.227C377.536 172.053 381.36 181.014 385.602 192.232C386.61 195.01 387.618 197.615 388.522 200.15C388.905 201.331 389.6 202.651 389.044 204.214C388.766 204.978 388.001 205.533 387.34 205.742C386.68 205.95 386.089 205.95 385.567 205.985C381.499 206.158 378.961 206.193 378.961 205.95Z" fill="#263238"/>
<path d="M367.002 208.763C367.662 208.728 367.662 213.104 371.452 216.23C375.207 219.356 379.9 218.87 379.935 219.495C380.005 219.773 378.892 220.363 376.91 220.398C374.963 220.467 372.147 219.842 369.818 217.932C367.523 216.022 366.55 213.452 366.376 211.68C366.237 209.805 366.724 208.728 367.002 208.763Z" fill="#263238"/>
<path d="M365.298 160.071C364.915 161.183 360.847 160.662 356.084 161.217C351.321 161.704 347.497 163.093 346.836 162.086C346.558 161.599 347.219 160.592 348.783 159.516C350.313 158.439 352.781 157.432 355.632 157.119C358.483 156.807 361.091 157.258 362.829 157.953C364.567 158.682 365.437 159.55 365.298 160.071Z" fill="#263238"/>
<path d="M402.568 163.475C401.837 164.378 399.056 163.44 395.718 163.406C392.346 163.232 389.53 164.031 388.869 163.058C388.591 162.607 389.043 161.669 390.26 160.801C391.477 159.932 393.528 159.238 395.823 159.307C398.117 159.377 400.134 160.21 401.281 161.148C402.498 162.051 402.915 163.023 402.568 163.475Z" fill="#263238"/>
<path d="M455.1 408.462L461.08 316.218C439.976 295.519 428.955 285.934 399.577 282.495C395.092 281.974 391.511 281.627 388.799 281.28L388.625 264.123C365.853 263.984 358.795 281.974 358.795 281.974C345.897 261.484 319.404 264.262 319.404 264.262L320.621 281.176C310.191 281.627 301.534 284.822 292.634 286.524C264.646 291.873 244.516 312.259 238.919 331.048L265.898 404.294L264.786 471.949L264.751 496.885L264.925 588.503H465.565C466.086 566.658 455.1 408.462 455.1 408.462Z" fill="#E0E0E0"/>
<path d="M421.932 1244.63L422.141 1209.44L356.188 1208.65L355.354 1260.08L359.456 1260.39C377.639 1261.61 452.006 1265.36 464.209 1261.82C477.803 1257.89 421.932 1244.63 421.932 1244.63Z" fill="#E8505B"/>
<g opacity="0.4">
<g opacity="0.4">
<g opacity="0.4">
<g opacity="0.4">
<g opacity="0.4">
<path opacity="0.4" d="M379.273 1259.87C378.404 1254.35 375.414 1249.21 371.033 1245.74C366.653 1242.26 361.264 1240.39 355.666 1240.77L355.423 1259.18L379.273 1259.87Z" fill="black"/>
</g>
</g>
</g>
</g>
</g>
<g opacity="0.4">
<g opacity="0.4">
<g opacity="0.4">
<path opacity="0.4" d="M449.224 1252.06C449.224 1252.06 468.798 1257.96 466.295 1261.16C463.792 1264.35 388.521 1263.41 355.354 1260.08L355.493 1258.62L443.314 1260.5C443.279 1260.5 445.365 1252.2 449.224 1252.06Z" fill="black"/>
</g>
</g>
</g>
<path d="M354.449 1258.55C354.449 1258.59 354.832 1258.62 355.597 1258.69C356.57 1258.76 357.648 1258.83 358.865 1258.93C362.133 1259.11 366.131 1259.35 370.859 1259.59C380.976 1260.08 394.953 1260.57 410.424 1260.78C425.895 1260.98 439.872 1260.88 450.024 1260.64C454.752 1260.5 458.75 1260.39 462.018 1260.29C463.235 1260.22 464.313 1260.18 465.286 1260.15C466.016 1260.12 466.434 1260.08 466.434 1260.05C466.434 1260.01 466.051 1260.01 465.286 1259.98C464.313 1259.98 463.235 1259.98 462.018 1259.98C458.75 1260.01 454.752 1260.05 450.024 1260.08C439.906 1260.15 425.895 1260.18 410.459 1259.98C395.022 1259.77 381.046 1259.35 370.894 1259C366.166 1258.83 362.168 1258.69 358.899 1258.59C357.683 1258.55 356.605 1258.52 355.631 1258.48C354.832 1258.52 354.449 1258.55 354.449 1258.55Z" fill="#263238"/>
<path d="M443.244 1261.5C443.487 1261.54 443.696 1258.69 445.538 1255.81C447.346 1252.93 449.815 1251.47 449.676 1251.29C449.641 1251.09 446.79 1252.3 444.843 1255.39C442.896 1258.48 443.035 1261.54 443.244 1261.5Z" fill="#263238"/>
<path d="M423.914 1251.4C424.088 1251.5 425.026 1250.39 426.035 1248.9C427.008 1247.4 427.669 1246.08 427.46 1245.95C427.286 1245.84 426.347 1246.95 425.339 1248.45C424.366 1249.97 423.74 1251.29 423.914 1251.4Z" fill="#263238"/>
<path d="M418.594 1248.52C418.733 1248.69 419.776 1247.99 420.924 1246.99C422.071 1245.98 422.871 1245.04 422.731 1244.87C422.592 1244.7 421.549 1245.39 420.402 1246.4C419.29 1247.4 418.455 1248.34 418.594 1248.52Z" fill="#263238"/>
<path d="M415.326 1242.26C415.326 1242.47 416.856 1242.72 418.768 1242.75C420.68 1242.78 422.21 1242.65 422.21 1242.44C422.21 1242.23 420.68 1241.99 418.768 1241.95C416.856 1241.88 415.326 1242.02 415.326 1242.26Z" fill="#263238"/>
<path d="M414.214 1237.85C414.144 1238.06 415.813 1238.83 418.038 1239.03C420.264 1239.24 422.037 1238.76 422.002 1238.55C421.967 1238.3 420.229 1238.41 418.108 1238.24C415.987 1238.03 414.284 1237.65 414.214 1237.85Z" fill="#263238"/>
<path d="M426.208 1245.67C426.208 1245.77 427.842 1245.98 430.45 1245.7C431.771 1245.56 433.3 1245.29 434.969 1244.76C435.804 1244.49 436.673 1244.28 437.577 1243.72C437.994 1243.44 438.481 1243.06 438.655 1242.44C438.828 1241.81 438.515 1241.08 438.029 1240.74C433.996 1238.58 429.928 1240.81 428.398 1242.89C427.564 1243.93 427.181 1244.97 426.973 1245.7C426.799 1246.43 426.799 1246.85 426.834 1246.85C426.973 1246.92 427.147 1245.18 428.816 1243.27C429.65 1242.33 430.867 1241.43 432.466 1240.98C433.961 1240.56 436.117 1240.46 437.507 1241.4C438.168 1241.92 437.89 1242.68 437.16 1243.13C436.464 1243.58 435.56 1243.83 434.761 1244.1C433.161 1244.63 431.666 1244.97 430.38 1245.18C427.842 1245.56 426.208 1245.56 426.208 1245.67Z" fill="#263238"/>
<path d="M427.321 1245.91C427.391 1245.95 428.016 1244.87 427.842 1242.99C427.738 1242.06 427.425 1240.94 426.73 1239.9C426 1238.96 425.061 1237.64 423.219 1237.71C422.245 1237.82 421.758 1238.93 421.897 1239.66C421.967 1240.39 422.28 1241.05 422.593 1241.57C423.219 1242.65 423.914 1243.51 424.574 1244.14C425.896 1245.46 426.939 1245.95 426.973 1245.88C427.043 1245.77 426.139 1245.11 424.992 1243.76C424.435 1243.06 423.81 1242.23 423.253 1241.19C422.697 1240.28 422.315 1238.69 423.358 1238.48C424.435 1238.37 425.478 1239.45 426.139 1240.32C426.8 1241.26 427.147 1242.23 427.286 1243.1C427.599 1244.76 427.182 1245.88 427.321 1245.91Z" fill="#263238"/>
<path d="M356.014 1240.56C356.014 1240.7 357.891 1240.42 360.881 1240.81C363.836 1241.19 367.904 1242.44 371.45 1245.32C374.996 1248.2 377.048 1251.95 377.986 1254.77C378.96 1257.61 379.029 1259.49 379.168 1259.49C379.203 1259.49 379.238 1259 379.203 1258.17C379.134 1257.3 378.96 1256.09 378.543 1254.59C377.708 1251.68 375.657 1247.72 371.972 1244.7C368.286 1241.67 364.01 1240.46 360.951 1240.25C359.421 1240.11 358.169 1240.18 357.335 1240.28C356.466 1240.39 356.014 1240.53 356.014 1240.56Z" fill="#263238"/>
<path d="M363.176 1213.23C362.968 1213.23 362.62 1219.27 362.446 1226.74C362.272 1234.21 362.272 1240.28 362.516 1240.28C362.724 1240.28 363.072 1234.24 363.246 1226.77C363.454 1219.31 363.42 1213.23 363.176 1213.23Z" fill="#263238"/>
<path d="M387.652 1253.55C387.617 1253.76 391.893 1254.52 397.282 1254.63C402.636 1254.77 406.947 1254.18 406.947 1253.97C406.912 1253.72 402.636 1253.93 397.317 1253.83C391.963 1253.72 387.652 1253.31 387.652 1253.55Z" fill="#263238"/>
<path d="M374.718 1253.38C374.544 1253.55 375.066 1254.28 375.483 1255.29C375.935 1256.26 376.143 1257.16 376.352 1257.16C376.561 1257.16 376.7 1256.12 376.213 1254.98C375.726 1253.79 374.857 1253.2 374.718 1253.38Z" fill="#263238"/>
<path d="M369.92 1247.23C369.746 1247.37 370.164 1248.06 370.859 1248.76C371.52 1249.45 372.215 1249.9 372.354 1249.77C372.528 1249.63 372.111 1248.93 371.415 1248.24C370.755 1247.54 370.094 1247.09 369.92 1247.23Z" fill="#263238"/>
<path d="M363.002 1244.38C363.037 1244.59 363.906 1244.63 364.88 1244.97C365.853 1245.32 366.549 1245.84 366.723 1245.7C366.896 1245.6 366.375 1244.63 365.158 1244.21C363.941 1243.79 362.933 1244.17 363.002 1244.38Z" fill="#263238"/>
<path d="M358.03 1243.03C357.961 1243.24 358.308 1243.58 358.865 1243.79C359.421 1244 359.908 1244.04 360.012 1243.83C360.082 1243.62 359.734 1243.27 359.178 1243.06C358.621 1242.82 358.135 1242.82 358.03 1243.03Z" fill="#263238"/>
<path d="M221.605 1222.26L215.312 1248.62C215.312 1248.62 172.132 1304.64 158.816 1301.9C150.089 1300.09 160.798 1285.5 177.242 1242.96L180.684 1225.39L221.605 1222.26Z" fill="#E8505B"/>
<path d="M157.077 1293.63C157.147 1293.56 157.494 1294.88 159.372 1295.82C161.18 1296.83 164.552 1296.93 167.646 1294.67C173.522 1290.02 181.101 1282.66 189.132 1274.32C197.129 1265.95 203.839 1257.89 208.567 1251.95C210.653 1249.24 212.496 1246.88 214.095 1244.87C214.616 1244.17 215.138 1243.55 215.59 1242.92C215.938 1242.47 216.146 1242.26 216.146 1242.26C216.181 1242.26 216.007 1242.54 215.694 1242.99C215.277 1243.62 214.825 1244.28 214.304 1245.01C213.087 1246.74 211.279 1249.24 208.984 1252.27C204.36 1258.31 197.685 1266.44 189.689 1274.84C181.623 1283.21 174.043 1290.47 167.959 1295.09C166.325 1296.13 164.656 1296.79 163.092 1296.89C161.527 1296.96 160.206 1296.58 159.267 1296.06C158.294 1295.54 157.738 1294.85 157.46 1294.39C157.112 1293.94 157.077 1293.63 157.077 1293.63Z" fill="#263238"/>
<path d="M163.197 1275.6C163.162 1275.54 164.518 1275.05 166.743 1275.22C168.968 1275.36 171.993 1276.26 174.879 1278.04C177.799 1279.77 179.885 1282.24 180.789 1284.29C181.728 1286.34 181.797 1287.73 181.728 1287.73C181.589 1287.76 181.311 1286.41 180.302 1284.53C179.294 1282.62 177.278 1280.4 174.461 1278.7C171.68 1276.96 168.794 1276.02 166.674 1275.74C164.553 1275.47 163.197 1275.74 163.197 1275.6Z" fill="#263238"/>
<path d="M204.047 1262.48C204.013 1262.48 203.804 1262.06 203.526 1261.23C203.248 1260.39 202.9 1259.18 202.691 1257.61C202.135 1254.52 202.448 1249.94 204.708 1245.63C206.898 1241.26 210.549 1238.41 213.434 1237.16C214.895 1236.5 216.146 1236.19 217.015 1236.05C217.885 1235.91 218.371 1235.91 218.371 1235.98C218.406 1236.12 216.424 1236.29 213.678 1237.64C210.966 1238.96 207.524 1241.78 205.403 1245.98C203.248 1250.15 202.865 1254.52 203.248 1257.55C203.595 1260.6 204.186 1262.44 204.047 1262.48Z" fill="#263238"/>
<path d="M218.858 1226.74C219.032 1226.81 218.058 1230.49 217.259 1235.14C216.459 1239.83 215.242 1243.51 214.999 1243.44C214.825 1243.38 215.694 1239.69 216.494 1235.01C217.294 1230.32 218.649 1226.64 218.858 1226.74Z" fill="#263238"/>
<path d="M176.478 1246.67C176.443 1246.47 178.981 1246.01 182.006 1246.74C185.065 1247.44 187.117 1248.93 187.012 1249.11C186.908 1249.31 184.752 1248.17 181.832 1247.51C178.946 1246.81 176.513 1246.88 176.478 1246.67Z" fill="#263238"/>
<path d="M175.608 1251.19C175.539 1251.02 177.694 1250.39 180.267 1251.02C182.874 1251.61 184.508 1253.13 184.369 1253.27C184.23 1253.45 182.527 1252.34 180.093 1251.78C177.694 1251.19 175.643 1251.4 175.608 1251.19Z" fill="#263238"/>
<path d="M172.166 1256.85C172.027 1256.68 174.218 1255.57 176.999 1256.23C179.78 1256.85 181.275 1258.8 181.102 1258.86C180.962 1259.04 179.363 1257.51 176.825 1256.99C174.287 1256.4 172.201 1257.06 172.166 1256.85Z" fill="#263238"/>
<path d="M179.467 1244.76C179.432 1244.63 181.449 1244.21 184.543 1243.03C186.073 1242.44 187.881 1241.6 189.758 1240.53C190.697 1239.97 191.67 1239.38 192.609 1238.69C193.478 1238.03 194.452 1237.09 194.417 1236.05C194.382 1235.01 193.096 1234.45 192.122 1234.73C191.079 1234.97 190.245 1235.77 189.445 1236.5C187.846 1237.99 186.49 1239.42 185.412 1240.67C183.222 1243.13 181.97 1244.76 181.901 1244.7C181.866 1244.66 182.11 1244.21 182.631 1243.44C183.153 1242.68 183.952 1241.57 184.995 1240.28C186.073 1239 187.394 1237.51 188.959 1235.98C189.758 1235.21 190.627 1234.31 191.949 1233.96C193.165 1233.62 195.112 1234.28 195.182 1235.98C195.147 1237.58 194 1238.51 193.026 1239.28C192.018 1239.97 191.045 1240.56 190.071 1241.12C188.124 1242.19 186.282 1242.96 184.717 1243.51C183.118 1244.07 181.831 1244.38 180.893 1244.56C179.989 1244.76 179.467 1244.8 179.467 1244.76Z" fill="#263238"/>
<path d="M181.727 1244.21C181.588 1244.21 181.415 1242.33 180.928 1239.38C180.65 1237.92 180.267 1236.15 179.468 1234.38C179.05 1233.51 178.529 1232.61 177.868 1231.84C177.208 1231.12 176.2 1230.46 175.4 1230.94C174.6 1231.39 174.496 1232.61 174.6 1233.58C174.739 1234.59 175.052 1235.6 175.435 1236.46C176.2 1238.27 177.277 1239.69 178.251 1240.81C180.232 1243.06 181.797 1244.1 181.727 1244.21C181.693 1244.24 181.275 1244.04 180.58 1243.55C179.885 1243.06 178.911 1242.3 177.834 1241.19C176.791 1240.08 175.608 1238.65 174.774 1236.78C174.357 1235.84 174.009 1234.83 173.835 1233.69C173.731 1232.61 173.696 1231.12 175.017 1230.28C176.408 1229.55 177.729 1230.56 178.425 1231.36C179.189 1232.23 179.676 1233.16 180.128 1234.1C180.963 1235.98 181.275 1237.78 181.484 1239.31C181.693 1240.81 181.727 1242.06 181.762 1242.89C181.797 1243.76 181.762 1244.21 181.727 1244.21Z" fill="#263238"/>
<g opacity="0.4">
<g opacity="0.4">
<g opacity="0.4">
<path opacity="0.4" d="M215.312 1248.62L218.337 1235.94C218.337 1235.94 207.767 1237.89 205.021 1245.81C202.274 1253.72 202.97 1259.35 202.97 1259.35L179.989 1284.08C179.989 1284.08 174.217 1272.83 163.787 1275.54C163.787 1275.54 155.582 1293.59 155.826 1298.11C156.104 1303.08 161.354 1302.1 163.231 1301.24C164.065 1300.85 174.009 1295.16 183.813 1285.02C195.947 1272.37 209.401 1256.36 215.312 1248.62Z" fill="black"/>
</g>
</g>
</g>
<path d="M716.095 375.329C717.972 376.024 719.398 377.586 719.919 379.531C721.518 385.436 724.334 398.008 720.093 400.613C718.146 401.828 691.584 402.835 688.594 401.62C685.569 400.404 670.898 403.078 670.898 403.078L668.395 386.477L707.924 372.238L716.095 375.329Z" fill="#B78876"/>
<path d="M782.882 427.911H741.718C718.146 427.911 698.955 408.74 698.955 385.192C698.955 361.645 718.146 342.474 741.718 342.474H782.882V359.944H741.718C727.777 359.944 716.443 371.266 716.443 385.192C716.443 399.119 727.777 410.441 741.718 410.441H782.882V427.911Z" fill="#263238"/>
<path d="M668.36 377.1L679.173 374.252C679.173 374.252 683.484 362.305 689.846 361.194C696.209 360.082 720.719 367.584 720.719 367.584C720.719 367.584 718.425 372.134 707.438 371.578L700.624 372.238C700.624 372.238 701.18 378.107 692.315 384.706C692.315 384.706 671.941 391.305 671.003 391.791C670.099 392.277 668.36 377.1 668.36 377.1Z" fill="#B78876"/>
<path d="M718.147 376.788C712.688 377.76 706.152 378.003 702.467 379.393C701.493 379.775 700.555 380.226 699.859 380.99C699.164 381.754 698.816 382.9 699.268 383.838C699.859 385.123 701.493 385.436 702.884 385.505C705.804 385.679 708.76 385.575 711.68 385.193C708.586 385.505 705.422 385.852 702.536 387.033C701.493 387.45 700.45 388.04 699.72 388.909C698.99 389.812 698.677 391.062 699.164 392.104C699.929 393.736 702.084 393.979 703.858 393.945C707.091 393.91 710.324 393.632 713.523 393.146C710.637 393.667 707.786 394.292 705.005 395.056C703.962 395.334 702.815 395.75 702.293 396.723C701.667 397.938 702.502 399.501 703.684 400.161C704.866 400.821 706.326 400.856 707.682 400.821C712.41 400.821 714.566 400.786 720.059 400.613" fill="#B78876"/>
<path d="M695.583 396.237C695.34 396.202 695.548 394.743 695.34 392.416C695.131 390.124 694.297 386.894 692.141 383.977L691.585 383.248L692.35 382.692C692.976 382.24 693.636 381.754 694.262 381.233C697.495 378.489 699.546 375.051 699.964 372.412C700.416 369.738 699.407 368.105 699.72 367.966C699.825 367.827 701.389 369.355 701.25 372.551C701.111 375.711 698.955 379.636 695.444 382.588C694.749 383.178 694.053 383.699 693.358 384.151L693.567 382.865C695.966 386.165 696.626 389.846 696.522 392.312C696.417 394.882 695.757 396.306 695.583 396.237Z" fill="#AA6550"/>
<path d="M722.249 391.791C722.284 392.277 718.773 393.146 714.462 393.701C710.151 394.257 706.57 394.326 706.5 393.84C706.431 393.354 709.907 392.486 714.288 391.93C718.668 391.34 722.215 391.305 722.249 391.791Z" fill="#AA6550"/>
<path d="M721.068 384.185C721.137 384.672 717.487 385.54 712.932 386.095C708.377 386.651 704.657 386.686 704.588 386.2C704.518 385.713 708.169 384.845 712.723 384.289C717.278 383.734 720.998 383.699 721.068 384.185Z" fill="#AA6550"/>
<path d="M466.399 571.103L441.124 1231.29L338.422 1233.44L355.493 661.402L239.997 1237.82H142.371L268.123 572.458L466.399 571.103Z" fill="#263238"/>
<path d="M379.134 595.136C379.378 595.171 378.926 599.339 377.952 606.007C376.979 612.675 375.553 621.913 373.85 632.055C372.946 637.125 372.355 642.022 370.929 646.398C369.539 650.774 367.035 654.386 364.219 656.47C361.473 658.658 358.657 659.526 356.779 659.804C354.867 660.082 353.789 659.839 353.789 659.769C353.65 659.422 358.344 659.839 363.42 655.497C365.923 653.414 368.113 650.08 369.365 645.912C370.651 641.779 371.207 636.847 372.111 631.777C373.815 621.635 375.449 612.432 376.735 605.798C377.987 599.165 378.891 595.102 379.134 595.136Z" fill="#455A64"/>
<path d="M357.787 598.297C357.996 598.47 357.162 599.512 357.648 601.249C357.892 602.082 358.448 603.02 359.352 603.472C360.221 603.923 361.473 603.68 362.411 602.881C363.35 602.048 363.732 600.867 363.42 599.929C363.107 598.957 362.238 598.262 361.438 597.95C359.769 597.255 358.622 597.95 358.483 597.706C358.274 597.602 359.421 596.213 361.82 596.734C362.933 597.012 364.289 597.776 364.949 599.373C365.645 600.971 364.984 603.09 363.593 604.27C362.238 605.521 360.082 605.903 358.552 605C357.057 604.131 356.466 602.673 356.362 601.561C356.153 599.026 357.718 598.088 357.787 598.297Z" fill="#455A64"/>
<path d="M302.647 607.708C302.195 607.847 300.7 603.645 301.291 598.297C301.847 592.948 304.211 589.163 304.593 589.371C305.08 589.579 303.585 593.469 303.098 598.47C302.507 603.471 303.133 607.604 302.647 607.708Z" fill="#455A64"/>
<path d="M314.989 606.91C314.537 607.049 313.112 602.708 313.529 597.22C313.911 591.698 315.893 587.635 316.345 587.808C316.832 587.982 315.684 592.115 315.337 597.324C314.919 602.569 315.51 606.806 314.989 606.91Z" fill="#455A64"/>
<path d="M421.098 609.619C420.576 609.48 421.411 605.104 421.689 599.721C422.002 594.303 421.619 589.892 422.141 589.788C422.593 589.684 423.809 594.164 423.497 599.79C423.218 605.451 421.55 609.758 421.098 609.619Z" fill="#455A64"/>
<path d="M434.518 608.889C434.031 608.681 435.631 604.375 435.978 598.818C436.396 593.261 435.422 588.781 435.944 588.642C436.361 588.468 438.238 593.018 437.786 598.957C437.404 604.861 434.935 609.098 434.518 608.889Z" fill="#455A64"/>
<path d="M253.243 866.414C253.243 866.414 252.339 863.288 252.339 857.176C252.374 851.063 253.938 842.068 257.971 831.232C261.691 820.327 268.436 807.546 270.557 791.327C271.565 783.305 270.731 774.275 266.35 766.148C264.229 762.05 261.552 758.091 259.049 753.819C256.58 749.547 254.286 744.858 253.625 739.545C252.93 734.266 254.008 728.813 255.816 723.673C257.623 718.533 260.057 713.532 262.247 708.357C264.438 703.182 266.28 697.799 266.732 691.999C267.289 686.234 266.837 680.295 266.176 674.287C265.55 668.278 264.716 662.096 264.716 655.775C264.646 649.455 265.203 643.029 266.385 636.604C268.784 623.789 273.721 611.078 281.161 599.478C284.881 593.678 289.261 588.19 294.233 583.224C296.771 580.758 299.309 578.292 302.195 576.104C305.046 573.951 308.348 572.041 312.138 571.416C315.893 570.791 319.822 571.624 323.09 573.5C326.392 575.34 329.139 578.015 331.399 580.967C333.659 583.953 335.467 587.287 336.753 590.795C338.144 594.268 339.117 597.915 339.847 601.596C342.663 616.461 340.334 632.124 334.806 646.537C332.094 653.761 328.27 660.811 322.811 666.611C320.1 669.494 316.797 671.96 313.077 673.592C309.357 675.259 305.15 675.884 301.082 675.294C292.773 674.148 286.132 668.244 282.03 661.506C277.823 654.664 276.467 646.433 277.023 638.688C277.51 630.874 279.561 623.407 281.926 616.218C284.359 609.029 286.689 601.909 289.852 595.067C293.016 588.295 297.153 581.8 303.064 577.112C308.905 572.527 316.345 569.61 323.82 570.409C327.505 570.86 331.086 572.215 334.076 574.333C337.066 576.452 339.534 579.195 341.551 582.147C345.514 588.121 347.739 594.928 348.991 601.7C354.206 628.894 346.696 656.227 332.094 675.815C324.932 685.643 315.198 693.666 303.933 696.549C298.37 697.973 292.356 697.591 287.28 695.333C282.134 693.18 278.101 689.186 275.181 684.879C269.375 676.058 267.289 665.986 266.419 656.748C265.585 647.405 266.211 638.549 267.775 630.457C269.34 622.365 271.774 615.037 274.555 608.577C277.406 602.117 280.674 596.526 283.942 591.733C290.513 582.147 297.188 575.931 301.917 572.145C304.176 570.096 306.228 568.915 307.444 567.977C308.731 567.074 309.391 566.658 309.391 566.658C309.391 566.658 308.766 567.179 307.549 568.116C306.332 569.124 304.35 570.339 302.125 572.388C297.466 576.278 290.93 582.529 284.498 592.08C281.3 596.873 278.136 602.43 275.32 608.855C272.608 615.315 270.244 622.573 268.749 630.596C267.254 638.619 266.663 647.405 267.532 656.609C268.401 665.743 270.522 675.606 276.189 684.115C279.04 688.283 282.899 692.034 287.766 694.083C292.564 696.201 298.231 696.549 303.551 695.159C314.328 692.416 323.82 684.567 330.808 674.912C345.132 655.636 352.468 628.686 347.287 602.013C346.071 595.38 343.845 588.781 340.056 583.085C338.144 580.272 335.814 577.702 333.033 575.722C330.217 573.777 326.949 572.527 323.542 572.11C316.658 571.381 309.635 574.125 304.072 578.466C298.475 582.877 294.442 589.163 291.382 595.796C288.323 602.465 285.958 609.619 283.56 616.739C281.23 623.893 279.248 631.221 278.762 638.792C278.24 646.329 279.527 654.039 283.525 660.568C287.419 666.959 293.712 672.481 301.291 673.488C308.87 674.703 316.345 670.848 321.49 665.361C326.74 659.839 330.46 652.997 333.102 645.912C338.526 631.777 340.786 616.391 338.074 601.944C337.379 598.332 336.44 594.824 335.084 591.455C333.833 588.052 332.129 584.891 329.973 582.043C327.818 579.23 325.245 576.73 322.22 575.028C319.23 573.291 315.719 572.597 312.416 573.118C305.637 574.298 300.422 579.716 295.485 584.405C290.583 589.302 286.271 594.685 282.586 600.381C275.25 611.772 270.348 624.275 267.949 636.882C266.802 643.203 266.246 649.524 266.28 655.741C266.28 661.957 267.08 668.07 267.706 674.113C268.332 680.156 268.784 686.199 268.193 692.103C267.706 698.042 265.794 703.668 263.569 708.843C261.343 714.053 258.91 719.019 257.102 724.055C255.329 729.091 254.321 734.3 254.946 739.301C255.537 744.303 257.728 748.887 260.161 753.124C262.595 757.361 265.307 761.32 267.428 765.523C271.878 773.893 272.678 783.2 271.635 791.362C269.34 807.859 262.491 820.57 258.701 831.406C254.599 842.172 252.93 851.063 252.791 857.141C252.721 860.163 252.895 862.489 253.069 864.018C253.173 865.615 253.243 866.414 253.243 866.414Z" fill="#455A64"/>
<path d="M311.651 151.493C311.999 159.168 313.077 167.26 314.433 174.797C314.641 175.943 314.815 179.416 315.093 180.562C316.658 187.23 319.404 190.113 323.403 183.202C324.932 180.562 325.906 173.199 326.497 170.213C328.096 162.12 329.695 153.994 331.295 145.901C337.588 148.819 344.402 151.076 351.355 150.659C358.274 150.243 365.332 146.735 368.495 140.553C371.763 146.006 377.639 149.826 383.967 150.659C390.294 151.493 396.935 149.305 401.524 144.859C403.888 148.61 409.486 149.652 413.275 147.36C417.065 145.068 418.768 139.997 417.551 135.725C415.744 129.3 408.86 125.827 402.428 123.917C377.361 116.554 349.617 122.32 327.053 135.552C323.75 137.497 320.517 139.58 317.944 142.394C315.371 145.207 311.79 148.506 311.686 152.326" fill="#263238"/>
<path d="M320.899 587.496L320.134 281.037C309.704 281.488 298.648 283.85 289.748 285.552C261.761 290.9 241.631 311.287 236.033 330.076L262.943 402.037L261.865 495.878L261.935 531.823L248.967 620.802L320.865 641.675L320.308 587.496H320.899Z" fill="#E8505B"/>
<path d="M556.41 464.482C566.354 462.953 674.931 416.936 674.931 416.936L666.204 363.938L564.059 391.722L450.823 304.653C434.205 289.615 422.349 284.51 396.726 281.488C395.3 281.314 393.979 281.176 392.728 281.037L410.215 587.496H410.285L413.622 644.87L477.768 634.694L468.659 551.515C463.617 498.1 455.934 420.826 455.134 408.496C480.306 424.056 548.379 465.697 556.41 464.482Z" fill="#E8505B"/>
<path d="M554.881 417.387C554.429 417.457 553.734 410.962 556.098 403.426C558.427 395.855 562.669 390.923 563.016 391.236C563.468 391.548 560.026 396.758 557.836 403.982C555.541 411.171 555.437 417.387 554.881 417.387Z" fill="#263238"/>
<path d="M563.99 416.45C563.503 416.519 562.182 410.719 562.043 403.426C561.904 396.098 563.017 390.263 563.503 390.333C564.025 390.402 563.712 396.237 563.851 403.391C563.99 410.58 564.512 416.38 563.99 416.45Z" fill="#263238"/>
<g opacity="0.2">
<path opacity="0.2" d="M650.386 368.244C650.038 368.348 654.975 425.341 654.975 425.341L674.931 416.936L666.205 363.938L650.386 368.244Z" fill="black"/>
</g>
<g opacity="0.2">
<path opacity="0.2" d="M467.511 535.852L431.284 549.327L434.413 578.119C436.256 594.859 452.284 606.25 468.728 602.465L475.125 601.006L467.511 535.852Z" fill="black"/>
</g>
<g opacity="0.2">
<path opacity="0.2" d="M260.579 540.923L301.152 549.327L298.301 569.922C295.485 590.344 276.571 604.548 256.163 601.631L251.817 601.006L260.579 540.923Z" fill="black"/>
</g>
<path d="M459.967 464.516C459.481 464.551 455.865 427.702 451.971 382.206C448.042 336.675 445.261 299.756 445.748 299.722C446.234 299.687 449.815 336.536 453.744 382.067C457.673 427.529 460.454 464.447 459.967 464.516Z" fill="#263238"/>
<path d="M395.996 281.974C396.066 281.87 397.456 282.808 399.855 284.649C402.254 286.524 405.731 289.198 409.381 293.296C412.962 297.36 416.752 303.194 417.447 310.661C417.621 312.502 417.552 314.447 417.169 316.357C416.821 318.302 416.091 320.143 415.466 321.949C414.84 323.755 414.353 325.561 414.596 327.367C414.805 329.173 415.639 330.944 416.648 332.68C417.656 334.417 418.838 336.153 419.742 338.029C420.646 339.939 421.167 342.058 421.202 344.107C421.202 348.274 419.603 351.99 417.76 355.116C415.917 358.277 413.692 360.916 411.78 363.417C409.833 365.917 408.095 368.279 406.53 370.502C403.436 374.912 401.281 378.663 400.098 381.407C398.916 384.151 398.812 385.818 398.673 385.818C398.604 385.818 398.604 385.401 398.638 384.567C398.708 383.768 398.986 382.588 399.438 381.129C400.446 378.246 402.497 374.287 405.487 369.737C406.982 367.445 408.686 365.049 410.598 362.479C412.51 359.909 414.631 357.304 416.335 354.248C418.038 351.226 419.464 347.753 419.429 344.072C419.498 340.356 417.308 337.091 415.118 333.514C414.075 331.708 413.101 329.728 412.823 327.506C412.545 325.283 413.171 323.164 413.797 321.324C414.457 319.448 415.153 317.746 415.5 316.01C415.848 314.273 415.917 312.502 415.813 310.766C415.257 303.82 411.815 298.159 408.443 294.13C405.001 290.032 401.663 287.184 399.438 285.169C397.143 283.19 395.926 282.044 395.996 281.974Z" fill="#263238"/>
<path d="M318.883 390.332C318.744 390.367 318.258 388.631 317.11 385.574C315.998 382.518 313.981 378.246 311.026 373.21C309.566 370.64 307.966 367.862 306.263 364.875C304.629 361.854 302.786 358.589 301.465 354.838C300.144 351.122 299.136 346.989 299.379 342.613C299.483 340.425 299.97 338.168 300.944 336.084C301.882 333.965 303.551 332.159 304.942 330.562C306.367 328.929 307.097 327.123 306.854 325.144C306.68 323.199 305.811 321.289 304.733 319.622C302.508 316.253 299.31 313.301 298.058 309.272C296.772 305.348 297.258 301.319 298.406 297.985C299.553 294.616 301.396 291.768 303.377 289.545C307.41 285.065 311.895 282.808 315.059 281.835C316.658 281.314 317.945 281.175 318.814 281.071C319.683 281.037 320.135 281.037 320.135 281.106C320.17 281.28 318.292 281.349 315.268 282.495C312.278 283.641 308.071 286.003 304.351 290.379C302.508 292.567 300.839 295.276 299.831 298.436C298.823 301.597 298.475 305.278 299.657 308.751C300.735 312.259 303.76 315.037 306.228 318.649C307.41 320.49 308.453 322.609 308.662 325.005C309.01 327.401 307.897 330.006 306.332 331.708C304.803 333.479 303.412 334.972 302.578 336.848C301.708 338.689 301.291 340.703 301.152 342.717C300.909 346.746 301.813 350.705 303.03 354.282C304.246 357.894 305.985 361.09 307.584 364.146C309.218 367.133 310.748 369.946 312.139 372.551C314.955 377.691 316.832 382.136 317.771 385.297C318.258 386.859 318.57 388.11 318.709 388.978C318.883 389.846 318.918 390.332 318.883 390.332Z" fill="#263238"/>
<path d="M358.309 283.329C358.135 283.364 358.135 282.53 357.301 281.523C356.501 280.585 354.589 279.509 352.468 280.273C350.313 281.002 348.435 283.259 347.531 286.281C346.488 289.233 346.28 293.088 343.95 296.561L343.324 297.499L342.525 296.631L342.49 296.596C337.484 291.004 331.747 287.184 327.401 284.961C323.021 282.669 320.065 281.766 320.17 281.488C320.204 281.28 323.333 281.766 327.957 283.815C332.581 285.829 338.666 289.615 343.846 295.415L343.881 295.45L342.455 295.519C344.437 292.637 344.785 288.92 345.967 285.725C347.044 282.495 349.374 279.752 352.12 279.057C354.937 278.293 357.127 279.856 357.892 281.106C358.657 282.461 358.378 283.364 358.309 283.329Z" fill="#263238"/>
<path d="M388.834 281.28C389.008 281.384 388.139 283.016 386.436 285.586C384.697 288.122 382.368 291.734 378.856 295.519L377.709 296.735L377.396 295.033C377.014 292.914 376.597 290.622 375.901 288.399C374.962 285.309 373.363 282.669 371.242 281.002C369.156 279.3 366.653 278.744 364.671 279.161C362.655 279.543 361.299 280.655 360.569 281.523C359.839 282.426 359.63 283.086 359.491 283.051C359.387 283.051 359.387 282.287 360.013 281.141C360.638 280.03 362.099 278.571 364.393 277.946C366.653 277.251 369.817 277.772 372.251 279.717C374.754 281.558 376.631 284.614 377.605 287.913C378.37 290.31 378.717 292.671 379.065 294.79L377.605 294.304C381.012 290.831 383.585 287.288 385.532 284.961C387.479 282.565 388.661 281.176 388.834 281.28Z" fill="#263238"/>
<path d="M365.262 588.642C365.193 588.642 365.123 587.565 365.088 585.551C365.053 583.363 364.984 580.376 364.914 576.66C364.81 568.741 364.706 557.593 364.532 543.909C364.254 516.264 363.906 478.061 363.141 435.864C362.376 393.667 361.368 355.463 360.569 327.818C360.186 314.134 359.838 302.986 359.63 295.068C359.56 291.317 359.491 288.365 359.456 286.177C359.421 284.128 359.456 283.086 359.526 283.051C359.595 283.051 359.699 284.128 359.838 286.142C359.978 288.33 360.151 291.282 360.36 295.033C360.742 302.917 361.229 314.065 361.89 327.749C363.037 355.394 364.254 393.597 365.019 435.794C365.784 477.991 365.957 516.195 365.888 543.875C365.784 557.593 365.714 568.741 365.679 576.625C365.61 580.376 365.54 583.328 365.505 585.516C365.401 587.565 365.332 588.642 365.262 588.642Z" fill="#263238"/>
<path d="M782.883 342.474H769.741V359.944H782.883V342.474Z" fill="#455A64"/>
<path d="M782.883 410.441H769.741V427.911H782.883V410.441Z" fill="#455A64"/>
<path d="M338.422 1233.44L339.361 1202.64H443.14L441.124 1231.29L338.422 1233.44Z" fill="#455A64"/>
<path d="M142.371 1237.82L147.378 1211.25L244.899 1213.23L239.997 1237.82H142.371Z" fill="#455A64"/>
<path d="M298.788 532.761L299.622 533.803C301.187 534.15 302.89 534.463 304.768 534.775C307.584 535.262 310.435 535.192 313.216 534.706C316.623 534.115 321.073 533.143 323.368 531.823C326.184 530.226 329.487 532.865 328.305 535.574C327.088 538.248 319.405 542.867 308.974 543.77C298.544 544.673 312.173 553.912 317.075 557.385C321.977 560.858 336.649 572.284 336.753 574.611C336.927 578.049 333.277 578.883 328.479 575.305C323.611 571.693 308.453 562.039 306.749 564.713C305.081 567.352 330.252 584.648 330.252 584.648C330.252 584.648 336.232 587.461 334.354 590.621C330.982 596.317 305.567 575.965 303.168 573.951C301.534 572.562 299.553 575.41 301.395 576.799C303.307 578.223 326.914 593.469 323.542 599.304C320.969 603.784 302.473 582.772 295.798 582.321C289.122 581.869 311.443 596.838 308.801 601.006C307.827 602.569 306.854 603.576 295.311 593.157C288.81 587.287 277.684 574.402 268.923 563.949L298.788 532.761Z" fill="#B78876"/>
<path d="M243.056 315.628C243.056 315.628 200.64 383.386 169.037 432.912C154.748 455.313 161.632 485.076 184.3 498.934L268.818 569.506L304.698 531.059L234.955 453.333L280.604 390.332L243.056 315.628Z" fill="#E8505B"/>
<path d="M268.818 569.54C268.749 569.471 269.583 568.464 271.217 566.623C272.99 564.643 275.389 561.969 278.345 558.67C284.707 551.724 293.538 542.103 304.142 530.538V531.58C292.981 518.869 279.735 503.796 265.516 487.612C254.877 475.421 244.794 463.856 235.755 453.472L235.338 452.986L235.72 452.465C246.811 436.524 256.685 423.326 263.812 414.157C267.358 409.573 270.244 405.996 272.226 403.565C273.164 402.453 273.894 401.55 274.52 400.821C275.042 400.196 275.355 399.918 275.389 399.918C275.424 399.918 275.216 400.3 274.729 400.96C274.173 401.759 273.477 402.696 272.643 403.877C270.661 406.586 267.949 410.233 264.612 414.748C257.728 424.09 248.063 437.357 237.076 453.368L237.007 452.361C246.116 462.71 256.233 474.275 266.906 486.396C281.022 502.615 294.198 517.758 305.324 530.538L305.776 531.059L305.289 531.545C294.511 542.902 285.507 552.384 279.04 559.225C275.946 562.421 273.477 564.956 271.6 566.866C269.827 568.672 268.888 569.575 268.818 569.54Z" fill="#263238"/>
<path d="M955.466 355.324C955.361 355.533 953.623 353.692 949.555 353.102C945.487 352.442 939.508 353.692 932.971 357.2C929.634 358.832 926.018 360.847 921.672 362.097C919.517 362.757 917.152 362.965 914.719 362.93C912.32 362.757 909.851 362.305 907.452 361.506C902.655 359.909 898.1 357.374 893.302 355.116C888.539 352.928 883.289 350.914 877.831 351.469C872.373 351.921 867.401 354.526 862.742 357.026C858.049 359.562 853.529 362.236 848.627 363.625C843.794 365.153 838.579 364.771 834.442 363.035C830.27 361.367 826.828 359.075 823.594 357.339C817.232 353.588 810.87 353.345 807.08 354.804C803.221 356.297 802.352 358.832 802.178 358.624C802.143 358.624 802.317 358.033 802.978 357.13C803.604 356.227 804.855 354.977 806.837 354.144C810.731 352.338 817.545 352.442 824.186 356.193C827.523 357.894 831 360.082 834.998 361.611C838.961 363.173 843.62 363.451 848.175 361.993C852.764 360.638 857.214 357.999 861.908 355.429C866.601 352.893 871.747 350.115 877.692 349.629C883.672 349.038 889.235 351.226 894.102 353.484C898.969 355.811 903.489 358.311 908.043 359.874C912.598 361.437 917.222 361.819 921.324 360.603C925.462 359.527 929.077 357.582 932.45 356.019C939.125 352.616 945.522 351.469 949.694 352.407C951.78 352.789 953.31 353.588 954.214 354.213C955.083 354.838 955.466 355.29 955.466 355.324Z" fill="#263238"/>
<path d="M958.039 379.809C957.934 380.018 956.196 378.177 952.128 377.587C948.061 376.927 942.081 378.177 935.544 381.685C932.207 383.317 928.591 385.331 924.245 386.582C922.09 387.242 919.726 387.45 917.292 387.415C914.893 387.242 912.424 386.79 910.026 385.991C905.228 384.394 900.673 381.858 895.875 379.601C891.112 377.413 885.863 375.398 880.404 375.954C874.946 376.406 869.974 379.01 865.315 381.511C860.622 384.046 856.102 386.721 851.2 388.11C846.367 389.638 841.152 389.256 837.015 387.519C832.843 385.852 829.401 383.56 826.168 381.824C819.805 378.073 813.443 377.83 809.653 379.288C805.794 380.782 804.925 383.317 804.751 383.109C804.717 383.109 804.89 382.518 805.551 381.615C806.177 380.712 807.428 379.462 809.41 378.628C813.304 376.822 820.118 376.927 826.759 380.678C830.096 382.379 833.573 384.567 837.571 386.095C841.535 387.658 846.193 387.936 850.748 386.478C855.337 385.123 859.787 382.484 864.481 379.913C869.174 377.378 874.32 374.6 880.265 374.113C886.245 373.523 891.808 375.711 896.675 377.969C901.542 380.295 906.062 382.831 910.617 384.359C915.171 385.922 919.795 386.304 923.898 385.088C928.035 384.012 931.651 382.067 935.023 380.504C941.698 377.1 948.095 375.954 952.267 376.892C954.353 377.274 955.883 378.073 956.787 378.698C957.656 379.323 958.073 379.775 958.039 379.809Z" fill="#263238"/>
<path d="M956.856 405.301C956.752 405.51 955.013 403.669 950.946 403.078C946.878 402.419 940.898 403.669 934.362 407.177C931.024 408.809 927.408 410.823 923.063 412.074C920.907 412.733 918.543 412.942 916.109 412.907C913.71 412.733 911.242 412.282 908.843 411.483C904.045 409.886 899.491 407.35 894.693 405.093C889.93 402.905 884.68 400.89 879.222 401.446C873.763 401.898 868.791 404.502 864.133 407.003C859.439 409.538 854.919 412.212 850.017 413.602C845.185 415.13 839.97 414.748 835.832 413.011C831.66 411.344 828.218 409.052 824.985 407.316C818.623 403.565 812.26 403.322 808.471 404.78C804.612 406.274 803.742 408.809 803.569 408.601C803.534 408.601 803.708 408.01 804.368 407.107C804.994 406.204 806.246 404.954 808.227 404.12C812.121 402.314 818.936 402.419 825.576 406.169C828.914 407.871 832.39 410.059 836.389 411.587C840.352 413.15 845.011 413.428 849.565 411.969C854.155 410.615 858.605 407.975 863.298 405.405C867.992 402.87 873.137 400.092 879.082 399.605C885.062 399.015 890.625 401.203 895.492 403.46C900.36 405.787 904.879 408.323 909.434 409.851C913.988 411.414 918.612 411.796 922.715 410.58C926.852 409.504 930.468 407.559 933.84 405.996C940.516 402.592 946.913 401.446 951.085 402.384C953.206 402.766 954.7 403.565 955.604 404.19C956.474 404.815 956.891 405.266 956.856 405.301Z" fill="#263238"/>
<path d="M714.392 1007.66C728.437 1000.44 744.952 999.5 760.527 1002.07C768.906 1003.46 777.633 1005.96 783.335 1012.25C789.036 1018.53 790.114 1029.58 783.578 1034.99C779.684 1038.19 774.26 1038.71 769.219 1038.64C757.016 1038.5 743.492 1036.35 733.757 1043.68C728.194 1047.84 724.509 1054.83 717.834 1056.87C711.332 1058.89 703.996 1055.07 700.554 1049.2C697.112 1043.33 697.008 1036 698.607 1029.4C698.538 1029.37 700.241 1014.95 714.392 1007.66Z" fill="#E8505B"/>
<path d="M682.232 945.668C690.82 957.928 707.508 953.865 715.226 946.398C722.944 938.931 726.212 928.095 729.202 917.78C736.017 894.163 742.866 869.436 737.79 845.402C736.295 838.213 733.583 831.059 728.542 825.71C723.501 820.397 715.713 817.201 708.62 819.077C700.207 821.3 694.992 829.531 691.202 837.345C680.111 860.336 674.201 885.863 674.131 911.39C674.097 923.302 675.487 935.805 682.232 945.668Z" fill="#E8505B"/>
<path d="M658.66 963.242C667.978 952.198 669.751 936.083 665.614 922.26C661.476 908.437 652.089 896.664 641.312 887.044C628.657 875.791 613.776 867.004 597.783 861.378C591.491 859.155 584.85 857.419 578.21 858.044C571.569 858.669 564.894 862.073 561.765 867.977C557.176 876.694 561.591 887.287 566.319 895.935C574.698 911.146 584.259 925.698 594.898 939.417C603.45 950.461 613.289 961.332 626.327 966.333C639.399 971.334 652.959 970.743 659.877 961.679" fill="#E8505B"/>
<path d="M681.641 1130.36C681.815 1130.36 682.058 1128.38 682.406 1124.81C682.788 1120.74 683.31 1115.67 683.901 1109.63C684.596 1103.24 685.535 1095.63 687.308 1087.37C689.081 1079.1 691.863 1070.14 695.409 1061.08C699.094 1052.05 703.579 1043.85 708.829 1037.29C714.044 1030.69 720.128 1025.93 725.83 1023.19C731.497 1020.37 736.608 1019.23 740.119 1018.74C743.665 1018.39 745.647 1018.08 745.682 1017.94C745.682 1017.77 743.7 1017.77 740.049 1017.84C736.434 1018.08 731.114 1018.98 725.134 1021.73C719.12 1024.4 712.688 1029.23 707.229 1035.97C701.702 1042.67 697.043 1051.04 693.288 1060.24C689.672 1069.48 686.926 1078.51 685.257 1086.95C683.553 1095.39 682.788 1103.07 682.302 1109.49C681.815 1115.95 681.641 1121.16 681.537 1124.77C681.467 1128.35 681.502 1130.36 681.641 1130.36Z" fill="#263238"/>
<path d="M682.685 1118.69C682.754 1118.69 682.824 1117.79 682.824 1116.12C682.824 1114.18 682.824 1111.75 682.789 1108.73C682.754 1102.34 682.789 1093.06 683.102 1081.6C683.658 1058.72 685.64 1034.06 689.464 999.326C693.08 966.645 697.913 928.65 703.023 903.922C704.136 898.296 705.214 893.226 706.257 888.815C707.265 884.369 708.099 880.549 708.899 877.458C709.594 874.541 710.185 872.179 710.637 870.269C711.02 868.637 711.159 867.734 711.089 867.734C711.02 867.699 710.707 868.532 710.185 870.165C709.629 872.005 708.899 874.367 708.03 877.25C707.091 880.306 706.118 884.126 705.005 888.537C703.858 892.948 702.641 897.984 701.424 903.61C696.348 926.011 690.994 957.303 687.17 992.137C683.345 1026.94 681.642 1058.65 681.468 1081.6C681.329 1093.06 681.572 1102.37 681.885 1108.8C682.059 1111.78 682.233 1114.25 682.337 1116.16C682.511 1117.79 682.615 1118.69 682.685 1118.69Z" fill="#263238"/>
<path d="M682.858 1057.53C683.032 1057.53 682.997 1054.79 682.788 1049.82C682.51 1044.86 681.815 1037.7 680.424 1028.92C678.929 1020.16 676.878 1009.78 673.61 998.458C672.184 993.283 668.882 980.919 660.85 962.443C650.281 937.402 635.923 916.912 623.441 904.235C620.521 900.866 617.253 898.435 614.645 896.074C613.289 894.927 612.107 893.781 610.89 892.878C609.674 892.045 608.526 891.246 607.483 890.517C603.381 887.704 601.086 886.21 600.982 886.349C600.599 886.835 610.195 892.496 622.294 905.346C634.323 918.162 648.3 938.514 658.764 963.346C664.605 976.821 668.673 988.838 671.593 999.049C674.931 1010.23 677.156 1020.51 678.825 1029.19C680.424 1037.88 681.328 1044.96 681.884 1049.89C682.371 1054.83 682.684 1057.53 682.858 1057.53Z" fill="#263238"/>
<path d="M619.582 1156.1L625.736 1240.04H733.687L739.806 1156.1H619.582Z" fill="#263238"/>
<path d="M752.705 1123H609.187V1156.1H752.705V1123Z" fill="#263238"/>
<path d="M609.187 1236.81V1245.98H615.897H750.306V1236.81H609.187Z" fill="#455A64"/>
<path d="M622.538 1262.13L615.897 1245.98H745.161L737.443 1262.13H622.538Z" fill="#455A64"/>
<path d="M737.79 1183.54C737.825 1183.57 737.651 1183.81 737.304 1184.3C736.886 1184.86 736.33 1185.58 735.704 1186.45C734.175 1188.4 732.054 1191.11 729.412 1194.48L729.133 1194.82L728.855 1194.44C724.892 1188.99 719.607 1181.69 713.419 1173.08H714.323C709.734 1179.58 704.623 1186.83 699.13 1194.58L698.643 1195.24L698.121 1194.61C692.524 1187.95 686.405 1180.69 680.077 1173.19H681.12C680.807 1173.57 680.46 1174.02 680.112 1174.44C674.515 1181.45 669.091 1188.22 663.98 1194.65L663.459 1195.31L662.972 1194.61C657.514 1186.87 652.368 1179.65 647.744 1173.12L648.613 1173.15C641.104 1181.69 634.741 1188.92 629.874 1194.48L629.526 1194.86L629.283 1194.44C626.814 1190.31 624.833 1186.97 623.407 1184.58C622.781 1183.5 622.295 1182.63 621.912 1181.94C621.565 1181.35 621.425 1181.03 621.46 1181C621.495 1180.97 621.704 1181.28 622.086 1181.83C622.538 1182.49 623.06 1183.33 623.755 1184.37C625.25 1186.73 627.336 1189.96 629.909 1194.02H629.283C634.081 1188.4 640.339 1181.07 647.709 1172.42L648.161 1171.87L648.578 1172.46C653.237 1178.95 658.418 1186.17 663.945 1193.85L662.902 1193.82C668.013 1187.39 673.402 1180.62 679 1173.6C679.347 1173.19 679.695 1172.73 680.008 1172.35L680.529 1171.69L681.051 1172.32C687.378 1179.85 693.428 1187.11 699.025 1193.78L698.017 1193.82C703.58 1186.07 708.725 1178.88 713.384 1172.42L713.836 1171.8L714.288 1172.42C720.372 1181.1 725.552 1188.47 729.412 1193.99H728.855C731.602 1190.69 733.792 1188.05 735.392 1186.14C736.087 1185.31 736.678 1184.65 737.13 1184.13C737.547 1183.74 737.79 1183.5 737.79 1183.54Z" fill="#E0E0E0"/>
<path d="M741.301 1155.54C741.301 1155.92 714.253 1156.2 680.911 1156.2C647.535 1156.2 620.486 1155.89 620.486 1155.54C620.486 1155.16 647.535 1154.88 680.911 1154.88C714.253 1154.88 741.301 1155.16 741.301 1155.54Z" fill="#455A64"/>
<path d="M746.76 1246.88C746.76 1247.26 717.382 1247.54 681.12 1247.54C644.858 1247.54 615.479 1247.23 615.479 1246.88C615.479 1246.5 644.858 1246.22 681.12 1246.22C717.347 1246.22 746.76 1246.54 746.76 1246.88Z" fill="#263238"/>
<g opacity="0.2">
<path opacity="0.2" d="M714.392 1007.66C728.437 1000.44 744.952 999.5 760.527 1002.07C768.906 1003.46 777.633 1005.96 783.335 1012.25C789.036 1018.53 790.114 1029.58 783.578 1034.99C779.684 1038.19 774.26 1038.71 769.219 1038.64C757.016 1038.5 743.492 1036.35 733.757 1043.68C728.194 1047.84 724.509 1054.83 717.834 1056.87C711.332 1058.89 703.996 1055.07 700.554 1049.2C697.112 1043.33 697.008 1036 698.607 1029.4C698.538 1029.37 700.241 1014.95 714.392 1007.66Z" fill="black"/>
</g>
<path d="M1544.58 530.892L1459.89 482L1411 566.684L1495.68 615.576L1544.58 530.892Z" fill="#F7DF1E"/>
<path d="M1478.58 581.003C1478.68 584.773 1479.72 588.101 1483.64 590.367C1486.94 592.271 1490 591.839 1491.31 589.562C1492.89 586.833 1491.28 584.618 1488.57 580.935L1487.07 578.933C1482.74 573.171 1480.7 567.903 1484.44 561.425C1487.88 555.456 1495.05 553.538 1502.16 557.641C1507.22 560.563 1509.84 564.424 1509.8 570.547L1501.31 570.949C1501.35 567.714 1500.44 565.901 1498.15 564.582C1495.82 563.236 1493.49 563.862 1492.38 565.793C1491 568.18 1491.92 570.001 1494.48 573.45L1495.98 575.451C1501.06 582.254 1503.18 587.414 1499.34 594.06C1495.2 601.224 1487.31 601.9 1479.75 597.536C1472.36 593.269 1469.62 586.991 1469.95 581.026L1478.58 581.003ZM1450.07 565.462C1450.04 568.402 1450.1 570.934 1452.83 572.512C1455.45 574.022 1457.69 573.951 1459.98 569.974L1475.6 542.915L1483.56 547.509L1467.88 574.676C1463.12 582.915 1456.12 583.877 1449.07 579.805C1442.7 576.127 1440.91 570.699 1441.33 565.644L1450.07 565.462Z" fill="black"/>
<g clip-path="url(#clip0_576_235)">
<path d="M1304.85 1090.78C1304.85 1090.78 1300.76 1090.67 1302.24 1085.79L1305.22 1073.71C1305.22 1073.71 1305.84 1069.91 1309.52 1070.34L1416.73 1075.53L1434.27 1101.18C1434.27 1101.18 1436.99 1105.23 1431.51 1108.32L1304.85 1090.78Z" fill="#2489CA"/>
<path d="M1334.36 1094.86L1327.46 1123.86C1327.46 1123.86 1326.55 1126.53 1330.12 1127.74L1343.83 1129.65C1343.83 1129.65 1347.31 1130.44 1348.6 1125.96L1357.9 1098.12L1334.36 1094.86Z" fill="#1070B3"/>
<path d="M1366.42 1073.14L1382.38 1024.81L1364.73 999.451C1364.73 999.451 1359.5 994.858 1356.72 1001.01L1339.93 1071.83L1366.42 1073.14Z" fill="#0877B9"/>
<path d="M1431.54 1108.35C1434.83 1109.01 1436.74 1106.75 1436.74 1106.75L1454 1076.14C1455.78 1071.59 1453.38 1069.09 1453.38 1069.09L1401.03 992.513C1398.73 989.147 1394.49 990.339 1394.49 990.339L1364.5 994.885C1357.49 995.207 1356.72 1001.01 1356.72 1001.01C1356.72 1001.01 1358.83 995.18 1364.73 999.451L1433.95 1100.71C1434.42 1101.41 1434.74 1102.19 1434.87 1103.01C1435.09 1104.62 1434.57 1106.61 1431.16 1108.26L1431.54 1108.35Z" fill="#3C99D4"/>
</g>
<path fill-rule="evenodd" clip-rule="evenodd" d="M2135.56 489.034C2129.36 485.453 2121.64 488.232 2118.45 494.237C2115.38 500.006 2110.89 507.183 2105.6 512.091C2100.29 517.013 2094.97 519.003 2089.58 516.541L2086.41 522.041C2091.23 525.479 2092.17 531.079 2090.56 538.138C2088.96 545.176 2084.98 552.648 2081.52 558.189C2077.92 563.957 2079.37 572.035 2085.58 575.616L2149.12 612.304C2155.32 615.885 2163.05 613.105 2166.24 607.1C2169.31 601.331 2173.79 594.154 2179.08 589.246C2184.39 584.323 2189.7 582.329 2195.09 584.792L2198.27 579.292C2193.44 575.854 2192.51 570.259 2194.12 563.199C2195.73 556.162 2199.7 548.689 2203.16 543.148C2206.76 537.38 2205.31 529.303 2199.11 525.722L2135.56 489.033L2135.56 489.034ZM2155.9 571.84C2151.22 579.945 2142.34 581.371 2132.31 575.578L2115.23 565.717C2114.74 565.435 2114.38 564.97 2114.24 564.425C2114.09 563.88 2114.17 563.3 2114.45 562.811L2138.91 520.441C2139.19 519.953 2139.66 519.596 2140.2 519.45C2140.75 519.304 2141.33 519.38 2141.82 519.663L2158.8 529.467C2167.17 534.298 2170.04 541.999 2166.02 548.957C2163.2 553.841 2156.99 556.08 2151.84 554.129L2151.69 554.384C2157.69 558.785 2159.44 565.712 2155.9 571.84V571.84ZM2153.66 534.288L2143.92 528.665L2135.98 542.421L2144.18 547.157C2150.53 550.818 2155.5 550.283 2158.13 545.719C2160.6 541.442 2158.96 537.345 2153.66 534.288ZM2132.83 547.879L2124.08 563.038L2134.18 568.868C2140.78 572.679 2145.8 572.049 2148.68 567.071C2151.55 562.093 2149.43 557.463 2142.5 553.463L2132.83 547.878L2132.83 547.879Z" fill="#8939FF"/>
<path d="M1193.13 842.403C1204.24 848.819 1218.47 845.007 1224.88 833.895L1236.5 813.765L1216.37 802.143C1205.26 795.728 1191.04 799.539 1184.62 810.651C1178.21 821.763 1182.02 835.988 1193.13 842.403Z" fill="#0ACF83"/>
<path d="M1207.87 770.391C1214.28 759.279 1228.51 755.467 1239.62 761.883L1259.75 773.505L1236.5 813.765L1216.37 802.143C1205.26 795.728 1201.45 781.503 1207.87 770.391Z" fill="#A259FF"/>
<path d="M1231.11 730.13C1237.53 719.019 1251.75 715.207 1262.86 721.622L1282.99 733.245L1259.75 773.505L1239.62 761.883C1228.51 755.467 1224.69 741.242 1231.11 730.13Z" fill="#F24E1E"/>
<path d="M1282.99 733.245L1303.12 744.867C1314.24 751.282 1318.05 765.507 1311.63 776.619C1305.22 787.731 1290.99 791.543 1279.88 785.127L1259.75 773.505L1282.99 733.245Z" fill="#FF7262"/>
<path d="M1288.39 816.879C1281.97 827.991 1267.75 831.803 1256.63 825.387C1245.52 818.972 1241.71 804.747 1248.13 793.635C1254.54 782.523 1268.77 778.712 1279.88 785.127C1290.99 791.543 1294.8 805.768 1288.39 816.879Z" fill="#1ABCFE"/>
<path d="M1797.76 728.505L1902.72 677.763L1953.46 782.721L1848.51 833.464L1797.76 728.505Z" fill="#CC0000"/>
<path d="M1855.34 714.579L1814.49 734.328L1854.33 816.737L1895.17 796.99L1865.38 735.363L1886.16 725.316L1915.95 786.943L1936.74 776.896L1896.89 694.487L1855.34 714.579Z" fill="white"/>
<path d="M1108.2 401L1115.33 405.309L1111.25 412.708L1117.83 416.68L1121.91 409.281L1129.05 413.591L1116.69 435.982L1109.55 431.673L1113.67 424.209L1107.16 420.275L1103.04 427.739L1095.84 423.392L1108.2 401ZM1134.36 426.75L1128.06 422.947L1132.18 415.483L1151.94 427.418L1147.82 434.882L1141.49 431.06L1133.25 445.988L1126.12 441.678L1134.36 426.75ZM1155.08 429.31L1162.55 433.826L1162.79 444.484L1171.74 439.372L1179.21 443.887L1166.85 466.279L1159.72 461.969L1165.85 450.871L1156.41 455.902L1155.86 444.838L1149.73 455.936L1142.72 451.702L1155.08 429.31ZM1182.75 446.023L1189.89 450.332L1181.61 465.325L1191.73 471.433L1187.64 478.832L1170.39 468.415" fill="black"/>
<path d="M1023.58 553.699L1079.69 427.314L1192.25 495.289L1115.7 609.243L1062.19 594.752" fill="#E44D26"/>
<path d="M1067.92 584.586L1130.52 471.167L1176.53 498.952L1111.15 596.198" fill="#F16529"/>
<path d="M1087.04 464.508L1122.41 485.867L1114.28 500.6L1094.36 488.572L1087.34 504.449L1105.95 515.691L1097.84 530.391L1066.31 511.355L1087.04 464.508ZM1062.85 519.129L1077 527.673L1071.49 540.052L1084.81 553.984L1076.32 569.366L1052.07 543.466" fill="#EBEBEB"/>
<path d="M1157.66 507.151L1122.35 485.83L1114.22 500.563L1148.22 521.098L1157.66 507.151ZM1138.62 535.42L1105.89 515.653L1097.76 530.386L1115.13 540.878L1102.92 559.032L1084.75 553.946L1076.3 569.264L1109.77 578.316" fill="white"/>
<path d="M1758.05 489.738C1764.42 493.417 1772.57 491.234 1776.25 484.86C1779.93 478.487 1777.74 470.337 1771.37 466.658C1765 462.978 1756.85 465.162 1753.17 471.535C1749.49 477.909 1751.67 486.058 1758.05 489.738Z" fill="#61DAFB"/>
<path d="M1751.06 501.841C1785.26 521.585 1819.09 527.006 1826.63 513.948C1834.17 500.891 1812.56 474.299 1778.36 454.555C1744.16 434.81 1710.33 429.39 1702.79 442.447C1695.25 455.505 1716.86 482.096 1751.06 501.841Z" stroke="#61DAFB" stroke-width="5"/>
<path d="M1737.41 478.198C1737.41 517.687 1749.63 549.699 1764.71 549.699C1779.79 549.699 1792.01 517.687 1792.01 478.198C1792.01 438.709 1779.79 406.697 1764.71 406.697C1749.63 406.697 1737.41 438.709 1737.41 478.198Z" stroke="#61DAFB" stroke-width="5"/>
<path d="M1751.06 454.555C1716.86 474.299 1695.25 500.891 1702.79 513.948C1710.33 527.006 1744.16 521.585 1778.36 501.841C1812.56 482.096 1834.17 455.505 1826.63 442.447C1819.09 429.39 1785.26 434.81 1751.06 454.555Z" stroke="#61DAFB" stroke-width="5"/>
<g clip-path="url(#clip1_576_235)">
<path d="M2059.56 865L2127.52 979.658L2092.92 1022.77L2041.2 1041.85L1954 941.014L2059.56 865Z" fill="#264DE4"/>
<path d="M2114.35 978.727L2056.27 880.746L2013.12 911.817L2086.39 1013.56L2114.35 978.727Z" fill="#2965F1"/>
<path d="M2011.15 973.929L2021.85 986.291L2051.42 964.995L2041.9 951.78L2011.15 973.929Z" fill="#EBEBEB"/>
<path d="M2022.64 925.033L2022.6 925.066L1989.5 948.895L2000.22 961.245L2032.16 938.248L2022.64 925.033Z" fill="#EBEBEB"/>
<path d="M2076.52 999.85L2066.62 986.101L2066.57 986.158L2048.99 992.783L2040.46 982.92L2033.31 988.07L2027.19 992.473L2043.99 1011.89L2076.47 999.911L2076.52 999.85Z" fill="#EBEBEB"/>
<path d="M2067.65 953.31L2078.45 971.554L2066.58 986.145L2076.48 999.894L2098.16 972.877L2096.76 970.501L2074.81 933.474L2072.58 929.693L2055.7 901.227L2022.6 925.066L2032.11 938.281L2050.73 924.871L2059.28 939.27L2041.86 951.813L2051.37 965.028L2067.65 953.31Z" fill="white"/>
</g>
<path d="M1607.29 824.438C1581.36 795.521 1557.59 794.506 1553.36 791.411C1549.64 789.64 1544.62 785.6 1544.62 785.6C1544.54 785.532 1544.4 785.407 1544.25 785.293C1545.67 788.346 1546.19 789.539 1545.06 794.041C1542.64 799.789 1530.9 830.541 1550.04 869.136C1567.89 905.132 1606.52 910.993 1611.66 911.624L1612.24 911.688L1612.22 911.662C1612.34 911.825 1618.03 919.363 1623.65 927.577L1626.51 925.984C1623.77 919.49 1621.39 912.852 1619.39 906.098L1619.53 905.819C1620.51 903.738 1621.36 901.597 1622.07 899.409L1622.16 899.165C1625.93 887.672 1630.65 863.315 1615.79 836.946C1613.3 832.551 1610.46 828.368 1607.29 824.438ZM1602.7 890.675C1602.7 890.675 1575.32 841.494 1576.95 840.6C1578.22 839.895 1615.17 902.42 1615.17 902.42C1612.77 903.403 1604.83 894.5 1602.7 890.675Z" fill="#51B812"/>
<defs>
<clipPath id="clip0_576_235">
<rect width="140.119" height="137.597" fill="white" transform="translate(1273.78 1052.43) rotate(-34.3558)"/>
</clipPath>
<clipPath id="clip1_576_235">
<rect x="2061.76" y="791.32" width="211.631" height="211.631" rx="16" transform="rotate(45.5574 2061.76 791.32)" fill="white"/>
</clipPath>
</defs>
</svg>
