<svg width="312" height="168" viewBox="0 0 312 168" fill="none" xmlns="http://www.w3.org/2000/svg">
<path fill-rule="evenodd" clip-rule="evenodd" d="M12.7052 32.0441C13.7708 31.6115 16.2456 30.4777 19.686 28.9008C27.6346 25.2585 40.7215 19.2619 53.4167 14.1283C63.3661 10.09 72.6266 17.8504 74.5981 27.9399C88.3142 98.1436 160.376 113.538 203.81 81.3354L185.989 67.2201C174.403 58.0576 176.079 46.2244 189.718 40.9173L289.75 1.97678C303.388 -3.31787 313.088 4.39068 311.293 19.1291L298.234 126.529C296.445 141.272 285.503 145.842 273.898 136.686L255.292 121.746C202.768 190.602 57.6533 190.302 3.50151 61.9076C3.50151 61.9076 -8.24241 40.549 12.7052 32.0441Z" fill="#E91F3F"/>
</svg>
